<svg width="435" height="383" viewBox="0 0 435 383" fill="none" xmlns="http://www.w3.org/2000/svg">
<path fill-rule="evenodd" clip-rule="evenodd" d="M324.744 101.396C320.908 101.88 318.027 99.6505 312.984 95.7481C309.364 92.9459 307.387 79.7186 306.403 73.1332C306.095 71.0758 305.884 69.6667 305.751 69.4263L304.861 62.4056L302.023 34.8802C301.993 32.9385 303.82 28.5576 311.364 26.5673C320.793 24.0794 323.197 27.6666 324.006 34.0491C324.334 36.6424 324.977 42.1512 325.678 48.5687C325.916 48.604 326.152 48.6407 326.387 48.6785C351.665 39.0305 394.418 49.6641 405.929 90.9919C391.674 96.2084 358.525 95.5425 328.368 73.9499C328.848 80.1316 329.244 89.2154 328.728 91.8144C327.934 95.8054 325.862 99.9579 324.744 101.396Z" fill="#08742E"/>
<path d="M244.776 72.3845C300.518 72.2261 309.625 111.157 322.291 108.805C334.958 106.452 426.556 96.7799 415.602 159.753C393.633 286.05 307.402 287.264 290.077 284.555C283.39 283.51 271.76 283.858 260.792 279.976C249.823 276.095 240.667 269.875 230.886 263.024C193.717 236.993 184.872 201.362 184.877 152.258C184.879 126.02 204.674 72.4983 244.776 72.3845Z" fill="#D9463C"/>
<path d="M244.975 80.3592C285.242 78.2227 307.384 109.421 313.808 122.942C335.003 110.792 419.839 103.366 405.149 168.843C382.431 270.11 313.447 280.988 289.679 277.272C276.815 275.261 273.575 266.849 264.599 265.446C255.485 260.727 249.113 267.879 240.237 261.637C206.508 237.918 193.771 204.306 193.808 159.516C193.828 135.584 204.709 82.4956 244.975 80.3592Z" fill="#F7E5D0"/>
<path d="M306.763 152.594C295.885 148.135 277.23 161.726 268.877 182.055C260.524 202.385 273.151 224.127 279.587 225.133C286.023 226.14 309.653 225.953 318.006 205.624C326.359 185.294 317.642 157.053 306.763 152.594Z" fill="#FBF5EA"/>
<path d="M299.562 183.425C297.442 187.447 295.797 204.991 304.729 201.863C315.714 198.017 302.988 184.435 299.562 183.425Z" fill="#2B0D00"/>
<path d="M294.301 179.372C293.882 183.997 285.492 199.859 279.528 192.125C272.194 182.615 290.778 178.286 294.301 179.372Z" fill="#2B0D00"/>
<path fill-rule="evenodd" clip-rule="evenodd" d="M128.029 176.458C129.557 174.025 129.083 167.983 128.181 162.18C129.82 160.91 131.421 159.511 132.889 158.109C152.254 156.784 189.349 139.94 182.808 83.1532C169.123 79.3766 136.303 90.672 120.465 127.428L117.314 114.975C116.669 113.125 113.423 109.604 105.597 110.327C95.8141 111.229 94.7829 115.461 96.2286 121.79C96.7671 124.147 97.9049 128.917 99.2918 134.567C98.7752 134.413 98.2479 134.259 97.7098 134.104C59.5061 123.119 26.9519 136.283 15.5402 147.547C42.4966 183.196 85.2395 177.434 105.228 158.549C106.721 164.28 110.168 175.535 111.772 178.174C113.906 181.682 117.305 184.901 118.86 185.878C122.657 185.01 124.611 181.9 128.029 176.458Z" fill="#08742E"/>
<path d="M198.346 155.533C153.688 152.892 130.798 180.921 123.564 195.835C98.9006 176.955 16.5096 182.723 21.8627 245.986C31.3524 358.136 130.604 369.502 149.118 366.734C163.405 364.598 167.067 355.315 177.036 353.824C187.185 348.666 194.198 356.622 204.095 349.778C241.702 323.77 256.098 286.673 256.41 237.123C256.576 210.647 243.003 158.174 198.346 155.533Z" fill="#D9463C"/>
<path d="M186.752 197.436C194.288 204.008 194.078 213.073 186.507 221.753C178.936 230.433 167.932 232.23 160.396 225.658C152.861 219.085 153.833 206.994 161.403 198.314C168.974 189.634 179.217 190.863 186.752 197.436Z" fill="#F8FAF7"/>
</svg>
